<?xml version="1.0" standalone="no"?>
<!DOCTYPE svg PUBLIC "-//W3C//DTD SVG 20010904//EN"
 "http://www.w3.org/TR/2001/REC-SVG-20010904/DTD/svg10.dtd">
<svg version="1.0" xmlns="http://www.w3.org/2000/svg"
 width="512.000000pt" height="512.000000pt" viewBox="0 0 512.000000 512.000000"
 preserveAspectRatio="xMidYMid meet">

<g transform="translate(0.000000,512.000000) scale(0.100000,-0.100000)"
fill="#3d8361" stroke="none">
<path d="M2360 4921 l0 -201 148 0 c272 0 510 -36 735 -111 951 -317 1563
-1258 1466 -2255 -100 -1030 -913 -1843 -1943 -1943 -702 -69 -1408 220 -1857
758 -342 409 -509 883 -509 1443 l0 148 -201 0 -202 0 6 -227 c10 -394 74
-691 221 -1022 228 -514 660 -968 1168 -1229 815 -419 1808 -366 2570 136
1020 673 1422 1947 976 3091 -242 621 -777 1164 -1393 1414 -325 133 -581 184
-957 194 l-228 6 0 -202z"/>
<path d="M1583 4927 c-94 -40 -174 -75 -178 -78 -6 -7 129 -346 143 -361 4 -4
89 27 188 69 l182 75 -65 157 c-36 86 -69 168 -75 184 -5 15 -13 27 -16 26 -4
0 -84 -33 -179 -72z"/>
<path d="M745 4370 l-140 -140 143 -143 142 -142 142 142 143 143 -140 140
c-77 77 -142 140 -145 140 -3 0 -68 -63 -145 -140z"/>
<path d="M2360 3260 l0 -500 -500 0 -500 0 0 -200 0 -200 500 0 500 0 0 -500
0 -500 200 0 200 0 0 500 0 500 500 0 500 0 0 200 0 200 -500 0 -500 0 0 500
0 500 -200 0 -200 0 0 -500z"/>
<path d="M255 3683 c-89 -211 -135 -326 -133 -328 2 -2 82 -35 178 -75 96 -40
178 -74 181 -76 6 -3 145 323 151 355 2 9 -55 38 -172 87 -96 41 -178 74 -182
74 -4 0 -15 -17 -23 -37z"/>
</g>
</svg>
