<?xml version="1.0" standalone="no"?>
<!DOCTYPE svg PUBLIC "-//W3C//DTD SVG 20010904//EN"
 "http://www.w3.org/TR/2001/REC-SVG-20010904/DTD/svg10.dtd">
<svg version="1.0" xmlns="http://www.w3.org/2000/svg"
 width="512.000000pt" height="512.000000pt" viewBox="0 0 512.000000 512.000000"
 preserveAspectRatio="xMidYMid meet">

<g transform="translate(0.000000,512.000000) scale(0.100000,-0.100000)"
fill="#3d8361" stroke="none">
<path d="M2375 4899 c-782 -64 -1478 -510 -1864 -1196 -324 -576 -385 -1281
-167 -1912 116 -333 289 -611 540 -869 705 -723 1792 -913 2701 -472 491 239
898 659 1115 1150 358 809 242 1724 -306 2422 -129 164 -385 396 -564 510
-199 127 -446 236 -665 293 -166 44 -277 62 -445 75 -150 11 -199 11 -345 -1z
m490 -443 c202 -36 347 -83 524 -167 400 -191 708 -500 901 -901 352 -736 203
-1605 -375 -2183 -578 -578 -1447 -727 -2184 -374 -399 191 -709 502 -900 900
-85 177 -129 318 -168 529 -24 133 -24 467 0 600 39 211 83 352 168 529 286
598 847 997 1519 1080 107 14 408 6 515 -13z"/>
<path d="M1492 2987 c-78 -78 -142 -147 -142 -152 0 -6 244 -254 543 -552 373
-373 554 -547 579 -558 48 -19 128 -19 176 0 25 11 206 185 580 558 298 298
542 546 542 552 0 13 -282 295 -295 295 -5 0 -214 -204 -462 -452 l-453 -453
-453 453 c-248 248 -457 452 -462 452 -6 0 -74 -64 -153 -143z"/>
</g>
</svg>
